<?xml version="1.0" encoding="utf-8"?>
<!-- Generator: Adobe Illustrator 18.1.1, SVG Export Plug-In . SVG Version: 6.00 Build 0)  -->
<svg version="1.1" id="レイヤー_3" xmlns="http://www.w3.org/2000/svg" xmlns:xlink="http://www.w3.org/1999/xlink" x="0px"
	 y="0px" viewBox="0 342.1 612 107.9" enable-background="new 0 342.1 612 107.9" xml:space="preserve">
<g>
	<path fill="#FFFFFF" d="M448,429.6c0.4,0,0.3-0.5,0.4-0.8c12.3-24.3,60.3-44.8,61-44s-4.6,11.6,0,14.9c2.1,1.5,5.6,1.5,8.7,1.3
		c14.8-0.8,30.5-11.4,41.1-14.9c0.5,0.1,0.8,0.2,1.1,0.6c-0.6,3-3.9,5.4-2.8,10.2c0.9,4.2,6.7,4.7,12,4.2c6.9-0.6,15.3-3.8,22.5-6.7
		c7-2.8,14.5-7.1,18.5-9.6c0.7-0.2,1.4,0.7,0.7,1.1c-4.6,3-12.9,6.7-20.1,9.3c-7.7,2.8-16.2,6.1-23.6,6.7c-10,0.7-13.3-4.9-9.9-13.3
		c-8.7,2.1-26.9,12.2-41.1,13.3c-10.1,0.7-13.7-5.2-10.8-13.3c-9.2,2.3-28.8,13.2-40.6,22.5c-9.3,7.2-15,16.7-19.5,27.8
		c-1.3,3.1-1.8,7.8-3.9,10.8c-0.3,0.4-0.3,0.4-1,0c5.6-21.6,15.3-39.3,22.5-59.4c-5.7,1.8-27.8,20.1-28.8,1.4
		c-3.3,4.1-12.5,14.4-18.6,8.9c-2.3-2.3-0.4-7.8,0.9-10.7c-11,4.1-20.8,3.9-32.9,3.3c-4-0.1-4.4,0.1-5.3,0.3
		c-2.2,4.2-4.5,16.5-9.8,18.9c-1.1-0.2-1.6-1.4-1.4-1.8c1-2.1,2.1-2.4,3.4-4.3c2.3-3.2,5-8.2,6.2-12.2c-9.6,3.2-7,4.9-10.4,5
		c-0.3,0-0.8,0.1-0.8-0.5c0.8-2.9,7.5-5.1,11.9-6.1c3.8-9.2,7.7-22.2,5.2-32.9c0-0.2,0.2-0.5,0.5-0.5c10.7-0.3,22.9,2.4,34.3,2.1
		c6.5-0.2,12.2-2.3,18-2.1c0.4,0,0.7,0.9,0.4,1.4c-2.1,2.4-7.1,1.3-10.6,1.3c-13.2,0-28.4-0.5-38.7,0.7c-0.8,0-0.8,0.5-0.8,0.7
		c-1.1,10.9-4.3,19.9-7,29.3c0.1,0,1.7-0.2,3.1-0.2c6.6,0.3,21.3,1.8,30.5-2.7c2.3-1.3,4.1-4.1,6.4-4.3c0.4,0,1.3,0.8,1.1,1.1
		c-1.1,4-7.6,10.4-3.2,14.3c6.9,3.6,16.8-8.2,18.2-12c0.2-0.2,1,0.1,1.1,0.4c0.5,2.6-1,7.7,2.6,9.6c4.9,3.1,23.5-8,26.1-12.7
		c0.4-0.2,2,0.3,1.8,0.7c-2.3,7.1-6,14.1-8.9,20.6c-3.1,7.1-6.8,13.8-9.1,21.6C448,428.8,448.1,429.3,448,429.6 M446.4,433.4
		C446.6,433.7,446.2,433.1,446.4,433.4L446.4,433.4z M446,434.2C446.2,434.5,445.7,434,446,434.2L446,434.2z"/>
	<path fill="#FFFFFF" d="M482.1,361.1c2.6-0.2,6.7-1.7,8.9-1.6c0.4,0,0.8,0.5,0.5,0.6C489.1,361.1,485,360.8,482.1,361.1z"/>
	<path fill="#FFFFFF" d="M482.1,361.1c-3.2,0.7-8.2,1.9-11.7,0.9c0.4-0.3-0.3-1,0.3-1.1C473.4,360.4,478.8,361.6,482.1,361.1z"/>
	<path fill="#FFFFFF" d="M216.3,366.9c-1.6,0.6-3.8,0.8-6.1,1.3c-4.8,0.8-10.6,1.5-13.9,0.8c0.3-0.1,0.1-1.4,0.4-1.5
		c2.9,0.2,8.5,0.5,13.4,0.1c1.6-0.1,4.4-1.1,5.6-1.3L216.3,366.9z"/>
	<path fill="#FFFFFF" d="M530.8,366.7c-1,0.4-2.5,0.4-4.7,0.9c-2.5,0.6-12.2,2-14,1.7c-0.3-0.7-0.6-1.1-0.2-1.8
		c2,0.7,9.4-0.1,14.4-0.6c1.6-0.2,4-1.1,5.1-1.3C531.2,366.2,530.9,366.4,530.8,366.7z"/>
	<path fill="#FFFFFF" d="M582.1,367.4c-1.4,0.5-3.2,0.4-5.3,0.5c-5.6,0.5-12.5,0.5-14.1,0.7c0.1-0.7-0.1-1.4,0.4-1.5
		c3.2-0.2,8.4,0.6,13.6,0.3c1.6-0.1,6-1,6.7-1.5C583.6,366.6,582.6,366.8,582.1,367.4z"/>
	<path fill="#FFFFFF" d="M327,385.3c-1.9,0.5-4.2,3.1-6.1,4.1c-6.7,3.1-15.9,5-26.5,3.7c-0.5,0.4-2.8,9.4-9.5,8.6
		c-3-0.6-2-6.2-0.8-8.5c1-2.2,5.5-4.6,7-6.7c0.5-0.7-0.5-1.1-0.6-1.1c-3.6-0.3-5.3,4.4-7.6,6.6c-5.4,5-17,10.4-27.4,7.2
		c-1.8-0.6-1.3-1.8-1.3-2c1.5-3.9,4.7-6.4,7.8-8.4c1.8-1.1,3.4-1.9,4.7-3.2c-0.4-0.4-0.4-0.9-0.8-0.8c-4.5,1.1-8.5,5.4-12.5,8
		c-4.4,2.8-8.9,5.6-12.9,8.7c0,0.5-0.6,0.2,0,0c1.3-4.9,2.6-11,4.6-14c0.1-0.1,1-0.4,1.4-1c0.2-0.4-0.4-1.1-0.3-1.4
		c3.4-12.4,9-22.8,13.7-34.5c0.9-2.4,2.4-4.7,3.1-7.2c-0.5-0.6-1.4-0.2-1.9,0.3c-2.1,2-2.8,6.3-3.9,8.8c-4.1,10.1-8.2,21.8-12,32.4
		c-2.7,1.3-5.9,3.1-9.3,4.9c-9.5,4.8-21,10.3-32.3,11.3c-4.9,0.4-10.2-0.1-11.6-3.3c-1.8-4.4,1.5-7.6,2.3-10.8
		c0.1-0.2,0.3-1.4-1-0.9c-4,1.4-7,5.5-11.3,8c-5.3,3-11.8,7.5-19.5,7.5c-8.6,0-14.8-6.3-17-14.7c-6.2,2.4-11.5,9-17.8,12.6
		c6.8-18.2,21.7-31.1,23.7-53c0.2-2.3,0.6-4.7-0.9-4.4c0,0-0.2,0.1-0.3,0.1c-0.1,0.1-0.2,0.3-0.3,0.3c-2.6,5.4-5.5,13.4-8.6,20.3
		c-2.9,6.7-5.2,14.8-8.7,20.8c-5,8.5-25.3,20.3-39.8,17.2c-0.9-0.2-3.3-0.5-4.7-1.9c-1-1-1.4-3.2-1.4-3.8c-0.1-2.5,1-5,2.6-6.8
		c2-2.3,5-3.4,5.1-4.3c0-1-0.7-1.4-1.3-1.3c-3.8,0.5-6.7,6.9-9.9,9.9c-3.7,3.3-9.3,8.2-14.5,8.7c-7.2,0.8-13.5-3.3-17.9-7.5
		c-2.1,0.4-5.9,6.3-10.8,7.5c0.4-7.7,7.2-9.3,10.1-14.4c0.1-0.2,0.1-0.6,0.2-0.9c-3.3-2-5.9,2-8.7,3.3c-6.4,2.9-14.5,4.4-21.7,6.7
		c-2.8-7.7-7.3-13-12.2-20.7c-4.4-6.8-12.8-19.3,0-21.3c8.2-1.3,20.7,0.5,22,6.3c1.7,7.4-7.5,13.7-7.1,15.4c0.1,0.1,0.5,0,0.8,0
		c4.1-1.1,8.5-9,7.5-14.9c-1.5-9.7-28.5-10.8-30.6-2.6c-1.9,7.1,5.5,15.6,8.3,20c4.1,6.5,7.7,11.1,9.5,18.7
		c-3.8,1.9-17,4.4-16.6,10.3c0.3,5.1,11.5,6.1,16.6,1.3c2.7-2.6,2.9-6.6,2.3-11.2c7.5-3,17-3.9,24.2-7.1c-2.1,3.6-5,6.4-5.4,11.6
		c1.4,1.7,7.5-3.4,10.8-5.4c5.7,3,11.6,6.9,20,5.4c6.2-1,10.9-6.9,15.4-9.1c0-0.2,0.3-0.4,0.4,0c-0.1,0-0.3,0-0.4,0
		c-1.1,14.7,23.4,8.8,33.6,3.3c4.1-2.2,8.7-6.3,12-7.9c-1.8,4.4-3,9.1-5,13.3c0.1,0.1,0.2,0.1,0.3,0c5.9-3.6,12.5-9.8,18.7-14.1
		c2.9,8.3,7.6,14.6,17,14.9c12.1,0.4,21.7-8.4,29.5-12.4c-6.3,17.8,17.4,11.3,26.4,8.3c10.4-3.4,26.1-10.8,26-10.4
		c-1.1,4.1-4,9.6-4.4,14.6c5.3-2.5,12-7.4,17.9-10.8c0,0-1.5,1.9-2.5,3.3c-0.6,0.8-1,1.8-1.3,2.6c-0.5,1.1,0.6,1.8,1,2.1
		c8.9,5.4,21.6-2.2,28.1-6c-0.8,2.8-0.7,8.4,2.1,8.7c4.6,0.6,7.2-4.1,9.6-7.6c8.4,0.6,17-0.8,24-3.1c3.7-1.3,7.4-2.1,9.4-4.7
		C328.6,385.6,327.7,385.1,327,385.3z M136.1,379.3c4.6-12,8.2-25,13.9-35.7c0.1-0.2,0.3-0.6,0.6-0.3l0,0l0,0
		C148.5,357.9,143.6,369.8,136.1,379.3C136.2,379.9,135.5,379.6,136.1,379.3z M9.5,409.5c-2.6,0.4-6.9,0-7.4-1.9
		c-0.6-2.1,1.6-4.2,3.1-5c4.1-2.6,7.8-3,12.7-4.8C19.7,404,14.8,408.7,9.5,409.5z"/>
	<path fill="#FFFFFF" d="M85,392.7c0-0.2,0.3-0.4,0.4,0C85.4,392.7,85.3,392.7,85,392.7z"/>
	<path fill="#FFFFFF" d="M240.4,401.4C240.4,401.9,239.8,401.6,240.4,401.4L240.4,401.4z"/>
	<path fill="#FFFFFF" d="M448.5,428.8c-0.1,0.3,0,0.8-0.4,0.8C448.1,429.3,448,428.8,448.5,428.8z"/>
	<path fill="#FFFFFF" d="M446.4,433.4C446.2,433.1,446.6,433.7,446.4,433.4L446.4,433.4z"/>
	<path fill="#FFFFFF" d="M446,434.2C445.7,434,446.2,434.5,446,434.2L446,434.2z"/>
</g>
</svg>
